<?xml version="1.0" encoding="UTF-8" standalone="no"?>
<svg
   width="1346pt"
   height="869pt"
   viewBox="0 0 1346 869"
   version="1.1"
   id="svg19"
   sodipodi:docname="CVF-transparent-background.svg"
   inkscape:version="1.2.2 (b0a84865, 2022-12-01)"
   xmlns:inkscape="http://www.inkscape.org/namespaces/inkscape"
   xmlns:sodipodi="http://sodipodi.sourceforge.net/DTD/sodipodi-0.dtd"
   xmlns="http://www.w3.org/2000/svg"
   xmlns:svg="http://www.w3.org/2000/svg">
  <defs
     id="defs23" />
  <sodipodi:namedview
     id="namedview21"
     pagecolor="#ffffff"
     bordercolor="#000000"
     borderopacity="0.25"
     inkscape:showpageshadow="2"
     inkscape:pageopacity="0.0"
     inkscape:pagecheckerboard="0"
     inkscape:deskcolor="#d1d1d1"
     inkscape:document-units="pt"
     showgrid="false"
     inkscape:zoom="0.69427935"
     inkscape:cx="897.33333"
     inkscape:cy="579.73783"
     inkscape:window-width="1390"
     inkscape:window-height="1205"
     inkscape:window-x="0"
     inkscape:window-y="25"
     inkscape:window-maximized="0"
     inkscape:current-layer="svg19" />
  <g
     id="#7394c7ff">
    <path
       fill="#7394c7"
       opacity="1.00"
       d=" M 900.66 21.64 C 1005.44 21.24 1110.24 21.58 1215.02 21.47 C 1241.71 21.50 1268.40 21.41 1295.08 21.51 C 1297.62 21.14 1297.91 24.10 1297.84 25.94 C 1297.83 54.30 1297.84 82.65 1297.83 111.00 C 1297.79 116.49 1298.03 121.99 1297.52 127.46 C 1292.75 128.62 1287.84 128.09 1283.00 128.17 C 1200.15 128.20 1117.30 128.14 1034.46 128.21 C 1034.46 180.06 1034.46 231.91 1034.46 283.76 C 1078.31 283.83 1122.17 283.77 1166.03 283.79 C 1170.13 283.83 1174.36 283.33 1178.33 284.70 C 1178.78 318.46 1178.34 352.24 1178.56 386.01 C 1178.65 388.26 1178.39 390.53 1177.50 392.62 C 1129.84 392.68 1082.18 392.62 1034.52 392.65 C 1034.34 480.53 1034.58 568.41 1034.40 656.28 C 1030.75 657.64 1026.84 657.26 1023.04 657.26 C 983.34 657.24 943.64 657.28 903.94 657.24 C 901.32 657.65 899.55 655.59 899.97 653.07 C 900.03 445.72 899.97 238.34 899.99 30.98 C 899.83 27.85 899.96 24.70 900.66 21.64 Z"
       id="path12" />
    <path
       fill="#7394c7"
       opacity="1.00"
       d=" M 284.69 28.82 C 318.72 21.04 354.18 19.12 388.74 24.25 C 443.18 31.38 494.80 55.49 536.70 90.75 C 536.64 91.09 536.52 91.77 536.46 92.11 C 509.12 119.54 481.95 147.16 454.60 174.59 C 452.14 176.81 450.23 179.85 447.32 181.45 C 433.03 171.39 417.77 162.38 401.09 156.90 C 363.72 144.10 321.66 145.77 285.44 161.53 C 259.41 173.07 236.37 191.13 218.74 213.47 C 201.70 234.60 189.74 259.58 182.58 285.69 C 174.60 315.67 173.58 347.42 179.15 377.92 C 184.45 405.38 195.15 431.91 211.07 454.94 C 230.81 483.58 258.72 506.74 291.20 519.46 C 324.67 532.78 362.75 534.00 397.06 523.13 C 404.32 520.89 411.24 517.76 418.29 514.96 C 436.40 553.10 454.66 591.17 472.81 629.30 C 454.50 637.74 435.50 644.75 415.89 649.49 C 372.41 659.79 326.49 659.83 283.00 649.56 C 243.66 640.05 206.40 622.27 174.22 597.75 C 144.83 575.30 119.44 547.59 99.68 516.33 C 70.84 470.86 53.57 418.13 49.77 364.43 C 47.94 337.92 48.96 311.19 53.16 284.94 C 63.10 224.25 90.15 166.24 131.39 120.48 C 171.63 75.40 225.63 42.27 284.69 28.82 Z"
       id="path14" />
    <path
       fill="#7394c7"
       opacity="1.00"
       d=" M 360.28 284.62 C 362.16 284.22 364.06 283.78 366.00 283.77 C 410.02 283.83 454.06 283.75 498.08 283.80 C 500.43 283.40 501.93 285.33 502.68 287.27 C 546.66 377.12 590.64 466.98 634.56 556.85 C 634.93 556.76 635.67 556.57 636.04 556.48 C 652.12 520.24 668.80 484.26 685.10 448.11 C 703.49 407.78 721.74 367.38 740.13 327.05 C 746.83 312.89 752.79 298.38 759.67 284.30 C 764.71 283.44 769.83 283.86 774.92 283.79 C 809.61 283.78 844.30 283.80 878.99 283.78 C 882.90 283.71 886.86 283.61 890.70 284.53 C 890.66 286.60 890.59 288.75 889.55 290.62 C 881.03 308.58 873.19 326.87 864.81 344.90 C 788.95 511.85 713.08 678.79 637.24 845.75 C 635.80 845.64 634.36 845.53 632.94 845.43 C 625.08 828.33 616.64 811.50 608.32 794.62 C 566.70 709.28 524.72 624.10 483.28 538.66 C 475.12 522.05 467.46 505.18 459.18 488.62 C 454.90 482.01 451.88 474.73 448.40 467.69 C 420.23 410.21 392.10 352.71 364.00 295.19 C 362.39 291.81 360.03 288.55 360.28 284.62 Z"
       id="path16" />
  </g>
</svg>
