<?xml version="1.0" encoding="UTF-8"?>
<svg width="37px" height="37px" viewBox="0 0 37 37" version="1.1" xmlns="http://www.w3.org/2000/svg" xmlns:xlink="http://www.w3.org/1999/xlink">
    <title>submit</title>
    <g id="人物更新" stroke="none" stroke-width="1" fill="none" fill-rule="evenodd">
        <g id="ECCV-Workshop_0626" transform="translate(-423, -2923)" fill-rule="nonzero">
            <g id="编组-15" transform="translate(222, 2317.5)">
                <g id="submit" transform="translate(201, 605.5)">
                    <path d="M18.5,0 C8.28370536,0 0,8.28370536 0,18.5 C0,28.7162946 8.28370536,37 18.5,37 C28.7162946,37 37,28.7162946 37,18.5 C37,8.28370536 28.7162946,0 18.5,0 Z" id="形状" fill="#cc6600"></path>
                    <g id="􀈸" transform="translate(11, 8)" fill="#FFFFFF">
                        <path d="M2.95311573,21 L13.0468843,21 C15.0124629,21 16,19.9627213 16,17.917521 L16,9.05172414 L9.10623145,9.05172414 C7.89080119,9.05172414 7.32106825,8.45479963 7.32106825,7.20223672 L7.32106825,0 L2.95311573,0 C0.997032641,0 0,1.03727866 0,3.09226468 L0,17.917521 C0,19.972507 0.987537092,21 2.95311573,21 Z M9.14421365,7.70130475 L15.895549,7.70130475 C15.8290801,7.29030755 15.5537092,6.89888164 15.0979228,6.4193849 L9.86587537,0.929636533 C9.41958457,0.46971109 9.02077151,0.176141659 8.62195846,0.107642125 L8.62195846,7.16309413 C8.62195846,7.52516309 8.80237389,7.70130475 9.14421365,7.70130475 Z" id="形状"></path>
                    </g>
                </g>
            </g>
        </g>
    </g>
</svg>